<?xml version="1.0" encoding="utf-8"?>
<!-- Generator: Adobe Illustrator 27.7.0, SVG Export Plug-In . SVG Version: 6.00 Build 0)  -->
<svg version="1.1" id="레이어_1" xmlns="http://www.w3.org/2000/svg" xmlns:xlink="http://www.w3.org/1999/xlink" x="0px"
	 y="0px" width="2165.9px" height="2119.7px" viewBox="0 0 2165.9 2119.7" style="enable-background:new 0 0 2165.9 2119.7;"
	 xml:space="preserve">
<style type="text/css">
	.st0{fill:#F4F4F4;}
	.st1{fill:#939393;}
	.st2{fill:#3D3D3D;}
	.st3{fill:#262424;}
	.st4{fill:#FFFFFF;}
	.st5{opacity:0.2;fill:#FFFFFF;enable-background:new    ;}
	.st6{opacity:0.3;fill:#FFFFFF;enable-background:new    ;}
	.st7{opacity:0.1;fill:#FFFFFF;enable-background:new    ;}
</style>
<g>
	<path class="st0" d="M2147.5,1557.9v117.2c0,0.2-0.1,0.4-0.2,0.6v289.2c0,73.5-59.5,133-133,133H152.1c-73.4,0-133-59.5-133-133
		v-410.3l73-250V189.8c0-51.5,41.8-93.3,93.3-93.3h657.8l19.6-77.3h440.8l19.6,77.3H1981c51.5,0,93.3,41.8,93.3,93.3v1114.8l73,250
		v2.7C2147.4,1557.5,2147.5,1557.7,2147.5,1557.9z"/>
	<path class="st1" d="M1460.1,716.9c0,208.2-168.7,376.9-376.9,376.9S706.3,925,706.3,716.9S875.1,340,1083.2,340
		S1460.1,508.7,1460.1,716.9z M412.9,292.9H282.4v150.8h130.5V292.9z"/>
	<path class="st2" d="M243.6,1873.2c0-9.8,8-17.8,17.8-17.8h1643.7c9.8,0,17.8,8,17.8,17.8v22.5H243.6V1873.2z M243.6,1918.3
		c0,9.8,8,17.8,17.8,17.8h1643.7c9.8,0,17.8-8,17.8-17.8v-22.5H243.6V1918.3z M1083.2,404.9c-172.3,0-311.9,139.7-311.9,311.9
		s139.7,311.9,311.9,311.9s311.9-139.7,311.9-311.9S1255.5,404.9,1083.2,404.9z M470.8,491c0,0,0,0.1-0.1,0.1
		c-1.4,3.1-4.4,5.4-8.2,5.4H239.7c-3.8,0-6.8-2.3-8.2-5.4c-0.1-0.2-0.2-0.4-0.2-0.6c-0.1-0.2-0.1-0.3-0.2-0.5
		c-0.1-0.3-0.1-0.5-0.2-0.8c0-0.2-0.1-0.3-0.1-0.5s-0.1-0.5-0.1-0.7s0-0.5-0.1-0.7c0-0.1,0-0.2,0-0.3V255.8c0-0.8,0.1-1.6,0.3-2.4
		c-1.4-5.6,2.5-11.9,8.8-11.9h222.8c6.3,0,10.3,6.2,8.8,11.8c0.2,0.8,0.3,1.6,0.3,2.4V487v0.1c0,0.4,0,0.8-0.1,1.2
		c0,0.1,0,0.3-0.1,0.4c-0.1,0.3-0.1,0.6-0.2,0.9c0,0.2-0.1,0.3-0.1,0.4C471,490.4,470.9,490.7,470.8,491z M412.9,443.7l3,2V297
		c-0.6,0.1-1.3,0.2-1.9,0.2H295.8c-2.5,0-4.8-1-6.5-2.9l-3-2V441c0.6-0.1,1.3-0.2,1.9-0.2h118.2
		C408.8,440.9,411.2,441.9,412.9,443.7z M1916.8,470.9V261.4c0-9.6-7.8-17.5-17.5-17.5h-209.5c-9.6,0-17.5,7.8-17.5,17.5v209.5
		c0,9.6,7.8,17.5,17.5,17.5h209.5C1909,488.4,1916.8,480.5,1916.8,470.9z"/>
	<path class="st3" d="M1248.9,716.9c0,91.5-74.2,165.7-165.7,165.7s-165.7-74.2-165.7-165.7s74.2-165.7,165.7-165.7
		S1248.9,625.4,1248.9,716.9z"/>
	<path class="st4" d="M1196.3,689.3c0,22-8.8,39.8-19.7,39.8s-19.7-17.8-19.7-39.8s8.8-39.8,19.7-39.8S1196.3,667.3,1196.3,689.3z
		 M1174.5,748.6c-7.7,0-13.9,6.2-13.9,13.9s6.2,13.9,13.9,13.9s13.9-6.2,13.9-13.9C1188.4,754.9,1182.2,748.6,1174.5,748.6z"/>
	<path class="st5" d="M327.2,443.7h-14.1V292.9h14.1V443.7z M361.7,292.9h-14.1v150.8h14.1V292.9z M396.3,292.9h-14.1v150.8h14.1
		V292.9z"/>
	<path class="st6" d="M1870.7,366.2c0,43.7-34.1,79-76.1,79s-76.1-35.4-76.1-79s34.1-79,76.1-79S1870.7,322.5,1870.7,366.2z"/>
	<path class="st7" d="M1824.2,404.5c0,14.1-13.2,25.5-29.5,25.5s-29.5-11.4-29.5-25.5s13.2-25.5,29.5-25.5
		S1824.2,390.4,1824.2,404.5z"/>
	<path class="st5" d="M1833.9,340.4c0,17.6-17.6,31.8-39.2,31.8c-21.7,0-39.2-14.2-39.2-31.8s17.6-31.8,39.2-31.8
		S1833.9,322.8,1833.9,340.4z"/>
	<path d="M2084.3,1303.2V197.5c0-57-46.4-103.3-103.3-103.3h-648l-21.6-85H855.1l-21.6,85h-648c-57,0-103.3,46.4-103.3,103.3v1105.7
		l-73,250v411.7c0,78.9,64.2,143,143,143h1862.2c78.9,0,143-64.2,143-143v-411.7L2084.3,1303.2z M29.1,1581.6
		c17.2,15.2,47.5,32.8,95.6,32.8h1916.9c48.1,0,78.4-17.5,95.6-32.8v89.9c-7.5,7.4-35.7,30.4-95.6,30.4H124.8
		c-60,0-88.1-23-95.6-30.4v-89.9H29.1z M2041.6,1594.3H124.8c-59.8,0-86.8-30.1-94.8-41.3l69.6-238.4h1967.2l69.6,238.4
		C2128.5,1564.2,2101.5,1594.3,2041.6,1594.3z M870.6,29.2h425.2l16.5,65H854.1L870.6,29.2z M185.4,114.2h642.9H1338h643
		c46,0,83.3,37.4,83.3,83.3v1097.1H102.1V197.5C102.1,151.6,139.5,114.2,185.4,114.2z M2014.3,2087.9H152.1
		c-67.8,0-123-55.2-123-123v-268c17.1,11.4,47.7,25,95.7,25h1916.9c48,0,78.5-13.6,95.7-25v268
		C2137.3,2032.7,2082.1,2087.9,2014.3,2087.9z M1905.1,1845.4H261.3c-15.3,0-27.8,12.5-27.8,27.8v12.6v20v12.6
		c0,15.3,12.5,27.8,27.8,27.8H1905c15.3,0,27.8-12.5,27.8-27.8v-12.5v-20v-12.5C1932.8,1857.9,1920.4,1845.4,1905.1,1845.4z
		 M1912.8,1918.3c0,4.3-3.5,7.8-7.8,7.8H261.3c-4.3,0-7.8-3.5-7.8-7.8v-12.6h1659.3V1918.3z M253.6,1885.8v-12.6
		c0-4.3,3.5-7.8,7.8-7.8h1643.7c4.3,0,7.8,3.5,7.8,7.8v12.5L253.6,1885.8L253.6,1885.8z M809.6,990.4c35.5,35.5,76.9,63.4,123,82.9
		c47.7,20.2,98.4,30.4,150.6,30.4s102.9-10.2,150.6-30.4c46.1-19.5,87.4-47.4,123-82.9c35.5-35.5,63.4-76.9,82.9-123
		c20.2-47.7,30.4-98.4,30.4-150.6s-10.2-102.9-30.4-150.6c-19.5-46.1-47.4-87.4-82.9-123c-35.5-35.5-76.9-63.4-123-82.9
		c-47.7-20.2-98.4-30.4-150.6-30.4s-102.9,10.2-150.6,30.4c-46.1,19.5-87.4,47.4-123,82.9s-63.4,76.9-82.9,123
		c-20.2,47.7-30.4,98.4-30.4,150.6s10.2,102.9,30.4,150.6C746.2,913.5,774.1,954.9,809.6,990.4z M1083.2,350
		c202.3,0,366.9,164.6,366.9,366.9s-164.6,366.9-366.9,366.9S716.3,919.2,716.3,716.9C716.3,514.6,880.9,350,1083.2,350z
		 M1083.2,1038.8c86,0,166.8-33.5,227.6-94.3c60.8-60.8,94.3-141.6,94.3-227.6s-33.5-166.8-94.3-227.6S1169.2,395,1083.2,395
		s-166.8,33.5-227.6,94.3s-94.3,141.6-94.3,227.6s33.5,166.8,94.3,227.6C916.4,1005.3,997.2,1038.8,1083.2,1038.8z M1083.2,414.9
		c166.5,0,301.9,135.4,301.9,301.9s-135.4,301.9-301.9,301.9S781.3,883.3,781.3,716.9S916.7,414.9,1083.2,414.9z M1083.2,892.5
		c96.9,0,175.7-78.8,175.7-175.7s-78.8-175.7-175.7-175.7c-96.9,0-175.7,78.8-175.7,175.7C907.5,813.7,986.3,892.5,1083.2,892.5z
		 M1083.2,561.2c85.8,0,155.7,69.8,155.7,155.7s-69.8,155.7-155.7,155.7s-155.7-69.8-155.7-155.7S997.4,561.2,1083.2,561.2z
		 M1689.9,498.4h209.5c15.1,0,27.5-12.3,27.5-27.5V261.4c0-15.1-12.3-27.5-27.5-27.5h-209.5c-15.1,0-27.5,12.3-27.5,27.5v209.5
		C1662.4,486,1674.8,498.4,1689.9,498.4z M1682.4,261.4c0-4.1,3.3-7.5,7.5-7.5h209.5c4.1,0,7.5,3.3,7.5,7.5v209.5
		c0,4.1-3.3,7.5-7.5,7.5h-209.5c-4.1,0-7.5-3.3-7.5-7.5V261.4z M222.7,496.8c3.3,6.5,9.8,10.5,17,10.5h222.8
		c7.7,0,14.4-4.4,17.5-11.6c1.2-2.8,1.7-5.7,1.6-8.6l0,0V255.8c0-0.8-0.1-1.6-0.2-2.4c0.5-3.8-0.2-7.8-2-11.4
		c-3.3-6.5-9.8-10.5-17-10.5H239.6c-7.7,0-14.4,4.4-17.5,11.6c-1.4,3.3-1.9,6.8-1.5,10.3c-0.1,0.8-0.2,1.6-0.2,2.4v231.3l0,0
		C220.5,490.4,221.2,493.7,222.7,496.8z M242.2,487.3l44.3-33.6h122.4l51.2,33.6H242.2z M299.5,433.7V302.9H410v130.8H299.5z
		 M461.6,464.4L430,443.7V299.4l31.7-24L461.6,464.4z M460,251.5l-41.4,31.4H290.1l-47.9-31.4H460z M240.6,274.4l38.9,25.5V434
		l-5.5,4.1l-33.4,25.3V274.4z"/>
</g>
</svg>
